<svg width="21" height="19" viewBox="0 0 21 19" fill="none" xmlns="http://www.w3.org/2000/svg">
    <!--!Font Awesome Free 6.5.1 by @fontawesome - https://fontawesome.com License - https://fontawesome.com/license/free Copyright 2024 Fonticons, Inc.-->
    <path d="M20.5781 10.3188L13.0781 17.8188C12.7656 18.1001 12.4062 18.2407 12 18.2407C11.5938 18.2407 11.2344 18.1001 10.9219 17.8188C10.6406 17.5063 10.5 17.147 10.5 16.7407C10.5 16.3345 10.6406 15.9751 10.9219 15.6626L15.8906 10.7407H1.5C1.0625 10.7407 0.703125 10.6001 0.421875 10.3188C0.140625 10.0376 0 9.67822 0 9.24072C0 8.80322 0.140625 8.44385 0.421875 8.1626C0.703125 7.88135 1.0625 7.74072 1.5 7.74072H15.8906L10.9219 2.81885C10.6406 2.50635 10.5 2.14697 10.5 1.74072C10.5 1.33447 10.6406 0.975098 10.9219 0.662598C11.2344 0.381348 11.5938 0.240723 12 0.240723C12.4062 0.240723 12.7656 0.381348 13.0781 0.662598L20.5781 8.1626C20.8594 8.4751 21 8.83447 21 9.24072C21 9.64697 20.8594 10.0063 20.5781 10.3188Z" fill="#FC7C37"/>
</svg>
