<svg width="100" height="100" viewBox="0 0 80 81" xmlns="http://www.w3.org/2000/svg">
    <path d="M56 40.2408C55.9583 43.2408 55.2292 45.9283 53.8125 48.3033C52.3958 50.7199 50.4792 52.6366 48.0625 54.0533C45.6875 55.4699 43 56.1991 40 56.2408C37 56.1991 34.3125 55.4699 31.9375 54.0533C29.5208 52.6366 27.6042 50.7199 26.1875 48.3033C24.7708 45.9283 24.0417 43.2408 24 40.2408C24.0417 37.2408 24.7708 34.5533 26.1875 32.1783C27.6042 29.7616 29.5208 27.845 31.9375 26.4283C34.3125 25.0116 37 24.2825 40 24.2408C43 24.2825 45.6875 25.0116 48.0625 26.4283C50.4792 27.845 52.3958 29.7616 53.8125 32.1783C55.2292 34.5533 55.9583 37.2408 56 40.2408ZM27.625 36.2408L28.1875 37.3033C28.7292 38.2616 29.5208 38.8866 30.5625 39.1783L34.125 40.2408C35.3333 40.6158 35.9583 41.4074 36 42.6158V45.1158C36.0417 45.8658 36.375 46.3866 37 46.6783C37.625 47.0949 37.9583 47.6574 38 48.3658V50.8033C38 51.3033 38.1875 51.6991 38.5625 51.9908C38.9375 52.2408 39.375 52.3033 39.875 52.1783C40.9167 51.8449 41.6042 51.1574 41.9375 50.1158L42.0625 49.4283C42.3542 48.3033 43 47.4491 44 46.8658L44.5 46.6158C45.4583 46.0324 45.9583 45.1574 46 43.9908V43.4908C46 42.6574 45.7083 41.9491 45.125 41.3658L44.875 41.1158C44.2917 40.5324 43.5833 40.22 42.75 40.1783H40C39.3333 40.1783 38.6875 40.0325 38.0625 39.7408L35.9375 38.4908C35.6458 38.3241 35.4583 38.095 35.375 37.8033C35.1667 37.1366 35.375 36.6158 36 36.2408L36.375 36.0533C36.7917 35.845 37.2083 35.8241 37.625 35.9908L39.125 36.4283C39.7083 36.595 40.1667 36.4491 40.5 35.9908C40.7917 35.4908 40.7708 35.0116 40.4375 34.5533L39.5625 33.5533C38.9375 32.6783 38.9583 31.8241 39.625 30.9908L40.5625 29.8033C41.1458 29.095 41.2292 28.3241 40.8125 27.4908L40.625 27.2408C40.4167 27.2408 40.2083 27.2408 40 27.2408C37.0417 27.2825 34.4583 28.1366 32.25 29.8033C30.0417 31.4283 28.5 33.5741 27.625 36.2408ZM51.375 33.9283L49.75 34.5533C49.25 34.7616 48.8958 35.095 48.6875 35.5533C48.4792 36.0116 48.4583 36.5116 48.625 37.0533L49.625 40.1783C49.875 40.8866 50.3542 41.3241 51.0625 41.4908L52.875 41.9908C52.9583 41.4074 53 40.8241 53 40.2408C52.9583 37.9075 52.4167 35.8033 51.375 33.9283Z" fill="#FC7C37"/>
</svg> 
