<svg width="24" height="25" viewBox="0 0 24 25" fill="none" xmlns="http://www.w3.org/2000/svg">
    <path d="M22.95 0.46875H1.05C0.45 0.46875 0 0.91875 0 1.51875V23.5687C0 24.0187 0.45 24.4688 1.05 24.4688H23.1C23.7 24.4688 24.15 24.0188 24.15 23.4188V1.51875C24 0.91875 23.55 0.46875 22.95 0.46875ZM7.05 20.8688H3.6V9.46875H7.2V20.8688H7.05ZM5.4 7.96875C4.2 7.96875 3.3 6.91875 3.3 5.86875C3.3 4.66875 4.2 3.76875 5.4 3.76875C6.6 3.76875 7.5 4.66875 7.5 5.86875C7.35 6.91875 6.45 7.96875 5.4 7.96875ZM20.4 20.8688H16.8V15.3187C16.8 13.9687 16.8 12.3188 15 12.3188C13.2 12.3188 12.9 13.8187 12.9 15.3187V21.0187H9.3V9.46875H12.75V10.9688C13.2 10.0688 14.4 9.16875 16.05 9.16875C19.65 9.16875 20.25 11.5687 20.25 14.5687V20.8688H20.4Z" fill="#BC8F27"/>
</svg> 