<svg width="72" height="72" viewBox="0 0 72 72" fill="none" xmlns="http://www.w3.org/2000/svg">
<rect width="72" height="72" rx="36" fill="#BCE2E0"/>
<path d="M47.4375 38.4375L37.4375 48.4375C37.0208 48.8125 36.5417 49 36 49C35.4583 49 34.9792 48.8125 34.5625 48.4375L24.5625 38.4375C24.1875 38.0208 24 37.5417 24 37C24 36.4583 24.1875 35.9792 24.5625 35.5625C24.9792 35.1875 25.4583 35 26 35C26.5417 35 27.0208 35.1875 27.4375 35.5625L34 42.1875V23C34 22.4167 34.1875 21.9583 34.5625 21.625C34.9375 21.25 35.3958 21.0625 35.9375 21.0625C36.4792 21.0625 36.9583 21.25 37.375 21.625C37.7917 21.9583 38 22.4167 38 23V42.1875L44.5625 35.5625C44.9792 35.1875 45.4583 35 46 35C46.5417 35 47.0208 35.1875 47.4375 35.5625C47.8125 35.9792 48 36.4583 48 37C48 37.5417 47.8125 38.0208 47.4375 38.4375Z" fill="#243433"/>
</svg>
