<svg width="64" height="64" viewBox="0 0 64 64" fill="none" xmlns="http://www.w3.org/2000/svg">
<rect width="64" height="64" rx="32" fill="#D3EBEA"/>
<path d="M43.4375 34.4375L33.4375 44.4375C33.0208 44.8125 32.5417 45 32 45C31.4583 45 30.9792 44.8125 30.5625 44.4375L20.5625 34.4375C20.1875 34.0208 20 33.5417 20 33C20 32.4583 20.1875 31.9792 20.5625 31.5625C20.9792 31.1875 21.4583 31 22 31C22.5417 31 23.0208 31.1875 23.4375 31.5625L30 38.1875V19C30 18.4167 30.1875 17.9583 30.5625 17.625C30.9375 17.25 31.3958 17.0625 31.9375 17.0625C32.4792 17.0625 32.9583 17.25 33.375 17.625C33.7917 17.9583 34 18.4167 34 19V38.1875L40.5625 31.5625C40.9792 31.1875 41.4583 31 42 31C42.5417 31 43.0208 31.1875 43.4375 31.5625C43.8125 31.9792 44 32.4583 44 33C44 33.5417 43.8125 34.0208 43.4375 34.4375Z" fill="#486766"/>
</svg>
