<svg id="wave" style="transform: rotate(180deg); transition: 0.3s" viewBox="0 0 1440 280" version="1.1" xmlns="http://www.w3.org/2000/svg">
  <path style="transform: translate(0, 0px); opacity: 1" d="M0,28L48,37.3C96,47,192,65,288,60.7C384,56,480,28,576,37.3C672,47,768,93,864,102.7C960,112,1056,84,1152,74.7C1248,65,1344,75,1440,79.3C1536,84,1632,84,1728,93.3C1824,103,1920,121,2016,140C2112,159,2208,177,2304,163.3C2400,149,2496,103,2592,79.3C2688,56,2784,56,2880,70C2976,84,3072,112,3168,102.7C3264,93,3360,47,3456,51.3C3552,56,3648,112,3744,121.3C3840,131,3936,93,4032,98C4128,103,4224,149,4320,144.7C4416,140,4512,84,4608,51.3C4704,19,4800,9,4896,4.7C4992,0,5088,0,5184,18.7C5280,37,5376,75,5472,79.3C5568,84,5664,56,5760,46.7C5856,37,5952,47,6048,42C6144,37,6240,19,6336,37.3C6432,56,6528,112,6624,144.7C6720,177,6816,187,6864,191.3L6912,196L6912,280L6864,280C6816,280,6720,280,6624,280C6528,280,6432,280,6336,280C6240,280,6144,280,6048,280C5952,280,5856,280,5760,280C5664,280,5568,280,5472,280C5376,280,5280,280,5184,280C5088,280,4992,280,4896,280C4800,280,4704,280,4608,280C4512,280,4416,280,4320,280C4224,280,4128,280,4032,280C3936,280,3840,280,3744,280C3648,280,3552,280,3456,280C3360,280,3264,280,3168,280C3072,280,2976,280,2880,280C2784,280,2688,280,2592,280C2496,280,2400,280,2304,280C2208,280,2112,280,2016,280C1920,280,1824,280,1728,280C1632,280,1536,280,1440,280C1344,280,1248,280,1152,280C1056,280,960,280,864,280C768,280,672,280,576,280C480,280,384,280,288,280C192,280,96,280,48,280L0,280Z"></path>
</svg>