<svg width="1600" height="80" viewBox="0 0 1600 80" fill="none" xmlns="http://www.w3.org/2000/svg">
    <path fill-rule="evenodd" clip-rule="evenodd" d="M1600 55.7485L1546.67 55.7485C1493.33 55.7485 1386.67 55.7485 1280 61.9307C1173.33 68.113 1066.67 80.4774 960 78.9319C853.333 77.3863 746.667 61.9307 640 46.4752C533.333 31.0196 426.667 15.564 320 12.4729C213.333 9.38181 106.667 18.6551 53.3333 23.2918L0 27.9285V0.108459L53.3333 0.108459C106.667 0.108459 213.333 0.108459 320 0.108459C426.667 0.108459 533.333 0.108459 640 0.108459C746.667 0.108459 853.333 0.108459 960 0.108459C1066.67 0.108459 1173.33 0.108459 1280 0.108459C1386.67 0.108459 1493.33 0.108459 1546.67 0.108459H1600V55.7485Z" fill="#FFF9EB"/>
</svg> 