<svg width="760" height="401" viewBox="0 0 760 401" fill="none" xmlns="http://www.w3.org/2000/svg">
    <rect y="0.884277" width="760" height="400" fill="#FEF2D6"/>
    <path d="M160.329 157.407V190.133" stroke="#212121" stroke-width="2" stroke-miterlimit="10" stroke-linecap="square"/>
    <path d="M138.512 233.767H182.146" stroke="#212121" stroke-width="2" stroke-miterlimit="10"/>
    <path d="M203.963 157.407V190.133" stroke="#212121" stroke-width="2" stroke-miterlimit="10" stroke-linecap="square"/>
    <path d="M182.146 233.767H225.78" stroke="#212121" stroke-width="2" stroke-miterlimit="10"/>
    <path d="M253.043 155.51L259.446 187.605" stroke="#212121" stroke-width="2" stroke-miterlimit="10" stroke-linecap="square"/>
    <path d="M246.588 234.664L289.379 226.125" stroke="#212121" stroke-width="2" stroke-miterlimit="10"/>
    <path d="M138.512 127.409V246.721V280.128H182.146V246.721V127.409H138.512Z" stroke="#212121" stroke-width="2" stroke-miterlimit="10" stroke-linecap="square"/>
    <path d="M182.146 127.409V246.721V280.128H225.78V246.721V127.409H182.146Z" stroke="#212121" stroke-width="2" stroke-miterlimit="10" stroke-linecap="square"/>
    <path d="M225.78 130.36L249.121 247.367L255.658 280.128L298.45 271.592L291.913 238.829L268.571 121.824L225.78 130.36Z" stroke="#212121" stroke-width="2" stroke-miterlimit="10" stroke-linecap="square"/>
    <path d="M480.921 118.603L450.376 171.505C444.128 182.327 451.938 195.852 464.435 195.852H525.524C538.02 195.852 545.83 182.327 539.582 171.505L509.031 118.603C502.783 107.781 487.169 107.781 480.921 118.603L450.376 171.505C444.128 182.327 451.938 195.852 464.435 195.852H525.524C538.02 195.852 545.83 182.327 539.582 171.505L509.031 118.603C502.783 107.781 487.169 107.781 480.921 118.603Z" fill="#90CECB"/>
    <path d="M471.643 155.295C471.643 150.634 475.419 146.858 480.08 146.858C484.741 146.858 488.518 150.634 488.518 155.295" stroke="black" stroke-width="1.88198" stroke-miterlimit="10" stroke-linecap="round"/>
    <path d="M501.779 155.295C501.779 150.634 505.556 146.858 510.217 146.858C514.878 146.858 518.654 150.634 518.654 155.295" stroke="black" stroke-width="1.88198" stroke-miterlimit="10" stroke-linecap="round"/>
    <path d="M507.08 167.716C507.08 173.751 502.187 178.638 496.159 178.638C490.13 178.638 485.237 173.745 485.237 167.716" stroke="black" stroke-width="1.88198" stroke-miterlimit="10" stroke-linecap="round"/>
    <path d="M490.306 144.524C490.306 141.958 492.388 139.875 494.954 139.875C497.52 139.875 499.603 141.958 499.603 144.524" stroke="black" stroke-width="1.88198" stroke-miterlimit="10" stroke-linecap="round"/>
    <path d="M477.395 165.031C485.173 165.031 491.479 158.726 491.479 150.948C491.479 143.17 485.173 136.864 477.395 136.864C469.617 136.864 463.312 143.17 463.312 150.948C463.312 158.726 469.617 165.031 477.395 165.031Z" stroke="black" stroke-width="1.88198" stroke-miterlimit="10" stroke-linecap="round"/>
    <path d="M512.055 165.031C519.833 165.031 526.139 158.726 526.139 150.948C526.139 143.17 519.833 136.864 512.055 136.864C504.277 136.864 497.971 143.17 497.971 150.948C497.971 158.726 504.277 165.031 512.055 165.031Z" stroke="black" stroke-width="1.88198" stroke-miterlimit="10" stroke-linecap="round"/>
    <path d="M532.732 161.355C532.732 161.355 562.712 148.633 558.17 109.569" stroke="#90CECB" stroke-width="3.76397" stroke-miterlimit="10" stroke-linecap="round"/>
    <path d="M463.18 162.61C463.18 162.61 433.2 149.887 437.742 110.824" stroke="#90CECB" stroke-width="3.76397" stroke-miterlimit="10" stroke-linecap="round"/>
    <path d="M497.031 221.102C496.968 221.102 497.99 209.252 479.171 208.624C451.944 207.715 405.817 198.424 405.817 198.424C403.885 198.06 402.028 199.333 401.664 201.266L400.893 211.648C400.529 213.58 401.802 215.437 403.734 215.801L485.607 231.139C486.548 231.315 487.382 231.854 487.903 232.657C489.917 235.75 493.392 237.801 497.363 237.801" stroke="black" stroke-width="1.88198" stroke-miterlimit="10" stroke-linecap="round"/>
    <path d="M497.15 221.102C497.212 221.102 496.19 209.252 515.01 208.624C542.236 207.715 588.363 198.424 588.363 198.424C590.295 198.06 592.152 199.333 592.516 201.266L593.288 211.648C593.651 213.58 592.378 215.437 590.446 215.801L508.573 231.139C507.632 231.315 506.798 231.854 506.277 232.657C504.264 235.75 500.788 237.801 496.817 237.801" stroke="black" stroke-width="1.88198" stroke-miterlimit="10" stroke-linecap="round"/>
    <path d="M481.561 258.974C479.572 258.735 477.627 258.767 475.764 259.024C474.403 259.212 473.067 258.597 472.295 257.462C465.413 247.299 453.789 240.618 440.59 240.618C429.16 240.618 418.909 245.637 411.902 253.579C411.03 254.57 409.7 254.99 408.408 254.714C405.692 254.137 402.837 253.949 399.889 254.243C386.539 255.561 375.944 266.52 375.097 279.907C374.074 295.967 386.797 309.31 402.637 309.31C406.087 309.31 409.387 308.677 412.429 307.516C413.634 307.058 414.982 307.334 415.961 308.162C422.617 313.764 431.205 317.152 440.584 317.152C451.976 317.152 462.201 312.165 469.209 304.267C470.118 303.238 471.517 302.799 472.841 303.162C474.754 303.689 476.768 303.978 478.851 303.978C491.686 303.978 502.024 293.27 501.409 280.296C500.895 269.375 492.42 260.278 481.561 258.974Z" stroke="black" stroke-width="1.88198" stroke-miterlimit="10" stroke-linecap="round"/>
    <path d="M623.556 240.699C622.245 240.543 620.972 240.561 619.742 240.731C618.845 240.856 617.967 240.455 617.459 239.702C612.936 233.021 605.288 228.63 596.612 228.63C589.097 228.63 582.36 231.929 577.749 237.155C577.172 237.807 576.3 238.083 575.453 237.902C573.671 237.519 571.789 237.4 569.851 237.588C561.074 238.454 554.105 245.662 553.546 254.463C552.875 265.021 561.244 273.797 571.657 273.797C573.928 273.797 576.099 273.377 578.1 272.618C578.89 272.317 579.775 272.499 580.421 273.044C584.8 276.733 590.446 278.954 596.612 278.954C604.103 278.954 610.828 275.679 615.432 270.479C616.035 269.801 616.95 269.513 617.822 269.751C619.083 270.096 620.407 270.284 621.775 270.284C630.218 270.284 637.012 263.239 636.611 254.714C636.272 247.537 630.695 241.559 623.556 240.699Z" stroke="black" stroke-width="1.88198" stroke-miterlimit="10" stroke-linecap="round"/>
</svg>
